<mxfile host="app.diagrams.net" modified="2023-10-04T14:02:02.779Z" agent="Mozilla/5.0 (Windows NT 10.0; Win64; x64) AppleWebKit/537.36 (KHTML, like Gecko) Chrome/119.0.0.0 Safari/537.36 Edg/119.0.0.0" version="22.0.2" etag="9Dw0JP_ge8pMFjqVVZUx" type="github">
  <diagram name="Page-1" id="0E_mgDJePBrO2faYpW05">
    <mxGraphModel>
      <root>
        <mxCell id="0" />
        <mxCell id="1" parent="0" />
      </root>
    </mxGraphModel>
  </diagram>
</mxfile>
